<svg width="216" height="46" viewBox="0 0 216 46" fill="none" xmlns="http://www.w3.org/2000/svg">
<path d="M56.5968 44.192C55.6048 44.192 54.7248 43.952 53.9568 43.472C53.1888 42.992 52.8048 42.192 52.8048 41.072C52.8048 39.312 53.1728 37.52 53.9088 35.696C54.6768 33.872 55.6048 32.08 56.6928 30.32C57.8128 28.528 58.9168 26.784 60.0048 25.088C61.1248 23.392 62.0528 21.776 62.7888 20.24C63.5568 18.704 63.9408 17.28 63.9408 15.968C63.9408 14.912 63.6848 14.384 63.1728 14.384C62.8208 14.384 62.4208 14.672 61.9728 15.248C61.5248 15.792 61.2048 16.608 61.0128 17.696L60.4848 17.6C60.4848 15.776 60.9168 14.24 61.7808 12.992C62.6448 11.712 63.7488 10.752 65.0928 10.112C66.4368 9.472 67.8128 9.152 69.2208 9.152C70.8528 9.152 72.3728 9.616 73.7808 10.544C75.2208 11.472 76.2128 12.944 76.7568 14.96C76.9808 15.76 77.1408 16.656 77.2368 17.648C77.3648 18.64 77.4448 19.504 77.4768 20.24C77.5088 20.944 77.5248 21.296 77.5248 21.296C77.5888 23.888 77.6368 26.08 77.6688 27.872C77.7328 29.664 77.8288 31.168 77.9568 32.384C78.0848 33.6 78.2608 34.624 78.4848 35.456C78.7088 36.256 78.9968 36.912 79.3488 37.424C79.7328 37.904 80.2128 38.144 80.7888 38.144C81.3328 38.144 81.7968 37.984 82.1808 37.664C82.5968 37.344 82.8688 37.04 82.9968 36.752L83.3328 36.992C83.3328 38.464 83.0448 39.744 82.4688 40.832C81.8928 41.92 81.1408 42.752 80.2128 43.328C79.2848 43.904 78.3088 44.192 77.2848 44.192C76.2928 44.192 75.3168 43.904 74.3568 43.328C73.4288 42.72 72.6128 41.792 71.9088 40.544C71.2048 39.296 70.7408 37.68 70.5168 35.696C69.5248 35.632 68.5488 35.584 67.5888 35.552C66.6608 35.488 65.8128 35.456 65.0448 35.456C64.5328 35.456 64.0368 35.472 63.5568 35.504C63.1088 35.504 62.6608 35.52 62.2128 35.552C61.9248 36.544 61.6848 37.552 61.4928 38.576C61.3328 39.568 61.2528 40.544 61.2528 41.504C61.2528 42.24 60.7728 42.88 59.8128 43.424C58.8528 43.936 57.7808 44.192 56.5968 44.192ZM63.7968 31.088C64.5968 30.864 65.4448 30.72 66.3408 30.656C67.2368 30.56 68.1968 30.512 69.2208 30.512H70.2768C70.2128 28.144 70.1168 25.712 69.9888 23.216C69.8928 20.72 69.4928 18.4 68.7888 16.256C68.5328 18.56 67.8928 20.976 66.8688 23.504C65.8448 26.032 64.8208 28.56 63.7968 31.088ZM91.6556 44.192C90.5036 44.192 89.4156 43.792 88.3916 42.992C87.3996 42.192 86.5836 41.024 85.9436 39.488C85.3356 37.952 85.0316 36.096 85.0316 33.92C85.0316 31.68 85.3516 29.68 85.9916 27.92C86.6316 26.16 87.4636 24.672 88.4876 23.456C89.5436 22.208 90.6796 21.264 91.8956 20.624C93.1436 19.984 94.3596 19.664 95.5436 19.664C96.8556 19.664 98.0236 20.08 99.0476 20.912C100.072 21.712 100.776 22.976 101.16 24.704C101.448 23.104 101.688 21.584 101.88 20.144C102.104 18.672 102.216 17.376 102.216 16.256C102.216 14.784 102.024 13.712 101.64 13.04V12.752C102.376 11.92 103.176 11.312 104.04 10.928C104.936 10.512 105.784 10.304 106.584 10.304C107.64 10.304 108.536 10.64 109.272 11.312C110.008 11.952 110.376 12.88 110.376 14.096C110.376 14.768 110.264 15.76 110.04 17.072C109.816 18.384 109.544 19.888 109.224 21.584C108.904 23.248 108.568 24.976 108.216 26.768C107.896 28.528 107.624 30.224 107.4 31.856C107.176 33.456 107.064 34.848 107.064 36.032C107.064 37.024 107.16 37.824 107.352 38.432C107.576 39.008 107.928 39.296 108.408 39.296C108.76 39.296 109.112 39.184 109.464 38.96C109.848 38.704 110.104 38.416 110.232 38.096L110.568 38.336C110.568 39.392 110.232 40.368 109.56 41.264C108.888 42.128 108.04 42.832 107.016 43.376C105.992 43.92 104.936 44.192 103.848 44.192C102.664 44.192 101.72 43.872 101.016 43.232C100.344 42.56 99.8636 41.712 99.5756 40.688C99.2876 39.664 99.1276 38.608 99.0956 37.52C98.1036 39.824 96.9356 41.52 95.5916 42.608C94.2796 43.664 92.9676 44.192 91.6556 44.192ZM94.8716 38.096C95.7036 38.096 96.6316 37.344 97.6556 35.84C98.6796 34.336 99.5756 32.144 100.344 29.264L100.632 27.776C100.12 26.592 99.5596 25.76 98.9516 25.28C98.3756 24.768 97.8156 24.512 97.2716 24.512C96.4716 24.512 95.7196 24.96 95.0156 25.856C94.3116 26.72 93.7356 27.84 93.2876 29.216C92.8716 30.56 92.6636 31.984 92.6636 33.488C92.6636 34.928 92.8716 36.064 93.2876 36.896C93.7036 37.696 94.2316 38.096 94.8716 38.096ZM117.093 44.192C115.941 44.192 114.917 43.696 114.021 42.704C113.125 41.68 112.677 40.096 112.677 37.952C112.677 36.448 112.869 34.944 113.253 33.44C113.669 31.936 114.085 30.56 114.501 29.312C115.141 27.264 115.701 25.376 116.181 23.648C116.661 21.92 116.901 20.272 116.901 18.704C116.901 17.616 116.773 16.864 116.517 16.448C116.293 16.032 115.989 15.824 115.605 15.824C115.189 15.824 114.725 16.048 114.213 16.496C113.733 16.944 113.253 17.632 112.773 18.56L112.437 18.464C112.501 16.608 112.901 15.008 113.637 13.664C114.373 12.32 115.301 11.28 116.421 10.544C117.541 9.808 118.693 9.44 119.877 9.44C121.221 9.44 122.373 9.984 123.333 11.072C124.293 12.128 124.773 13.968 124.773 16.592C124.773 17.968 124.629 19.408 124.341 20.912C124.085 22.416 123.781 23.92 123.429 25.424C124.517 24.976 125.669 24.656 126.885 24.464C128.101 24.272 129.397 24.176 130.773 24.176H132.021C132.437 22.576 132.789 21.008 133.077 19.472C133.397 17.904 133.557 16.448 133.557 15.104C133.557 14.624 133.525 14.176 133.461 13.76C133.429 13.344 133.381 12.944 133.317 12.56V12.176C133.797 11.312 134.485 10.624 135.381 10.112C136.309 9.6 137.237 9.344 138.165 9.344C139.221 9.344 140.149 9.696 140.949 10.4C141.749 11.072 142.149 12.16 142.149 13.664C142.149 14.784 141.925 16.224 141.477 17.984C141.061 19.744 140.581 21.552 140.037 23.408C139.397 25.68 138.805 27.888 138.261 30.032C137.749 32.144 137.493 33.936 137.493 35.408C137.493 36.4 137.653 37.184 137.973 37.76C138.293 38.336 138.805 38.624 139.509 38.624C140.469 38.624 141.189 38.16 141.669 37.232L141.957 37.376C141.925 38.72 141.557 39.904 140.853 40.928C140.149 41.952 139.269 42.752 138.213 43.328C137.189 43.904 136.133 44.192 135.045 44.192C134.085 44.192 133.173 43.952 132.309 43.472C131.477 42.96 130.789 42.176 130.245 41.12C129.733 40.064 129.477 38.688 129.477 36.992C129.477 35.872 129.589 34.656 129.813 33.344C130.069 32 130.357 30.64 130.677 29.264C129.205 29.168 127.765 29.12 126.357 29.12C125.653 29.12 124.981 29.136 124.341 29.168C123.701 29.2 123.093 29.248 122.517 29.312C122.229 30.592 121.973 31.856 121.749 33.104C121.557 34.32 121.461 35.504 121.461 36.656C121.461 37.296 121.493 37.936 121.557 38.576C121.653 39.184 121.797 39.776 121.989 40.352C121.477 41.6 120.757 42.56 119.829 43.232C118.933 43.872 118.021 44.192 117.093 44.192ZM150.144 44.192C148.704 44.192 147.488 43.6 146.496 42.416C145.536 41.232 145.056 39.648 145.056 37.664C145.056 36.576 145.184 35.408 145.44 34.16C145.696 32.912 145.952 31.728 146.208 30.608C146.432 29.776 146.608 29.008 146.736 28.304C146.896 27.568 146.976 26.976 146.976 26.528C146.976 25.952 146.848 25.536 146.592 25.28C146.368 25.024 146.096 24.896 145.776 24.896C145.456 24.896 145.136 25.008 144.816 25.232C144.496 25.424 144.24 25.728 144.048 26.144L143.664 26C143.664 24.688 143.984 23.568 144.624 22.64C145.264 21.712 146.08 21.008 147.072 20.528C148.064 20.048 149.072 19.808 150.096 19.808C150.928 19.808 151.728 19.984 152.496 20.336C153.264 20.656 153.888 21.168 154.368 21.872C154.88 22.576 155.136 23.456 155.136 24.512C155.136 25.152 155.04 25.92 154.848 26.816C154.688 27.712 154.496 28.64 154.272 29.6C154.048 30.592 153.824 31.6 153.6 32.624C153.408 33.616 153.312 34.496 153.312 35.264C153.312 35.968 153.424 36.544 153.648 36.992C153.872 37.44 154.208 37.664 154.656 37.664C155.488 37.664 156.416 36.896 157.44 35.36C158.496 33.824 159.344 31.76 159.984 29.168C160.112 28.656 160.224 28.112 160.32 27.536C160.416 26.96 160.464 26.368 160.464 25.76C160.464 25.28 160.432 24.8 160.368 24.32C160.304 23.808 160.208 23.296 160.08 22.784V22.448C160.592 21.584 161.248 20.928 162.048 20.48C162.88 20.032 163.712 19.808 164.544 19.808C165.664 19.808 166.672 20.192 167.568 20.96C168.464 21.728 168.912 22.848 168.912 24.32C168.912 25.184 168.752 26.192 168.432 27.344C168.112 28.464 167.76 29.632 167.376 30.848C166.992 32.032 166.64 33.2 166.32 34.352C166 35.504 165.84 36.528 165.84 37.424C165.84 38.736 166.304 39.392 167.232 39.392C167.488 39.392 167.792 39.328 168.144 39.2C168.528 39.04 168.88 38.736 169.2 38.288L169.536 38.384C169.536 39.536 169.216 40.56 168.576 41.456C167.968 42.32 167.184 42.992 166.224 43.472C165.264 43.952 164.272 44.192 163.248 44.192C161.936 44.192 160.752 43.712 159.696 42.752C158.672 41.792 158.16 40.224 158.16 38.048V37.952C156.848 40.192 155.488 41.792 154.08 42.752C152.672 43.712 151.36 44.192 150.144 44.192ZM177.642 44.144C176.458 44.144 175.386 43.68 174.426 42.752C173.466 41.792 172.986 40.464 172.986 38.768C172.986 37.936 173.098 36.992 173.322 35.936C173.546 34.88 173.786 33.808 174.042 32.72C174.33 31.632 174.586 30.608 174.81 29.648C175.034 28.688 175.146 27.904 175.146 27.296C175.146 26.656 175.018 26.16 174.762 25.808C174.506 25.424 174.17 25.232 173.754 25.232C173.21 25.232 172.618 25.552 171.978 26.192L171.69 26C171.658 25.488 171.77 24.88 172.026 24.176C172.282 23.472 172.666 22.8 173.178 22.16C173.722 21.488 174.41 20.928 175.242 20.48C176.074 20.032 177.066 19.808 178.218 19.808C179.914 19.808 181.162 20.304 181.962 21.296C182.794 22.256 183.21 23.44 183.21 24.848C183.21 25.36 183.162 25.856 183.066 26.336C183.738 25.344 184.57 24.352 185.562 23.36C186.554 22.336 187.642 21.488 188.826 20.816C190.042 20.144 191.29 19.808 192.57 19.808C194.074 19.808 195.098 20.288 195.642 21.248C196.186 22.208 196.458 23.408 196.458 24.848C196.458 26.192 196.314 27.632 196.026 29.168C195.738 30.704 195.45 32.192 195.162 33.632C194.874 35.04 194.73 36.224 194.73 37.184C194.73 38.464 195.098 39.104 195.834 39.104C196.218 39.104 196.554 38.992 196.842 38.768C197.13 38.512 197.322 38.272 197.418 38.048L197.754 38.192C197.754 39.376 197.418 40.416 196.746 41.312C196.106 42.208 195.29 42.912 194.298 43.424C193.306 43.904 192.298 44.144 191.274 44.144C190.026 44.144 188.922 43.712 187.962 42.848C187.002 41.984 186.522 40.576 186.522 38.624C186.522 37.472 186.666 36.224 186.954 34.88C187.274 33.536 187.578 32.24 187.866 30.992C188.154 29.744 188.298 28.72 188.298 27.92C188.298 27.44 188.202 27.072 188.01 26.816C187.85 26.528 187.546 26.384 187.098 26.384C186.362 26.384 185.546 26.72 184.65 27.392C183.786 28.064 183.034 28.96 182.394 30.08C181.786 31.2 181.482 32.432 181.482 33.776C181.482 34.64 181.578 35.472 181.77 36.272C181.994 37.072 182.106 37.936 182.106 38.864C182.106 40.592 181.658 41.904 180.762 42.8C179.866 43.696 178.826 44.144 177.642 44.144ZM207.201 44.192C206.177 44.192 205.201 43.968 204.273 43.52C203.377 43.04 202.641 42.304 202.065 41.312C201.521 40.32 201.249 39.056 201.249 37.52C201.249 36.688 201.329 35.6 201.489 34.256C201.649 32.912 201.857 31.44 202.113 29.84C202.401 28.24 202.689 26.64 202.977 25.04C202.337 25.072 201.713 25.136 201.105 25.232C200.529 25.328 199.953 25.44 199.377 25.568L199.281 25.232C199.921 24.464 200.593 23.808 201.297 23.264C202.001 22.72 202.737 22.272 203.505 21.92C203.921 19.808 204.273 17.984 204.561 16.448C204.849 14.88 204.993 13.952 204.993 13.664C204.993 13.12 205.409 12.672 206.241 12.32C207.105 11.968 208.065 11.792 209.121 11.792C210.049 11.792 210.913 11.968 211.713 12.32C212.545 12.672 213.105 13.264 213.393 14.096C213.201 14.288 212.929 15.008 212.577 16.256C212.225 17.472 211.857 18.96 211.473 20.72C212.081 20.752 212.705 20.784 213.345 20.816C213.985 20.848 214.641 20.896 215.313 20.96C215.377 21.152 215.425 21.36 215.457 21.584C215.489 21.808 215.505 22.048 215.505 22.304C215.505 22.784 215.425 23.312 215.265 23.888C215.137 24.432 214.977 24.928 214.785 25.376C214.017 25.312 213.297 25.248 212.625 25.184C211.953 25.088 211.297 25.024 210.657 24.992C210.401 26.368 210.161 27.744 209.937 29.12C209.745 30.496 209.585 31.744 209.457 32.864C209.361 33.984 209.313 34.864 209.313 35.504C209.313 36.848 209.553 37.744 210.033 38.192C210.545 38.64 211.153 38.864 211.857 38.864C212.497 38.864 213.073 38.736 213.585 38.48C214.097 38.224 214.465 37.92 214.689 37.568L215.169 37.712C214.977 39.024 214.465 40.176 213.633 41.168C212.801 42.128 211.809 42.88 210.657 43.424C209.505 43.936 208.353 44.192 207.201 44.192Z" fill="white"/>
<path fill-rule="evenodd" clip-rule="evenodd" d="M25.8336 37.2619C35.2948 37.2619 42.9646 29.5921 42.9646 20.131C42.9646 10.6698 35.2948 3 25.8336 3C16.3725 3 8.70267 10.6698 8.70267 20.131C8.70267 23.7932 9.85186 27.1871 11.8093 29.9716L0.817673 40.9632C-0.272558 42.0534 -0.272558 43.8211 0.817674 44.9113C1.90791 46.0015 3.67552 46.0015 4.76575 44.9113L15.7187 33.9584C18.5533 36.0354 22.0502 37.2619 25.8336 37.2619ZM25.8336 33.455C33.1923 33.455 39.1577 27.4896 39.1577 20.1309C39.1577 12.7723 33.1923 6.80686 25.8336 6.80686C18.4749 6.80686 12.5096 12.7723 12.5096 20.1309C12.5096 27.4896 18.4749 33.455 25.8336 33.455ZM18.8993 15.6896C18.1984 15.6896 17.6303 16.2577 17.6303 16.9586C17.6303 17.6594 18.1984 18.2275 18.8993 18.2275H32.8578C33.5586 18.2275 34.1268 17.6594 34.1268 16.9586C34.1268 16.2577 33.5586 15.6896 32.8578 15.6896H18.8993ZM17.6303 20.7654C17.6303 20.0646 18.1984 19.4965 18.8993 19.4965H26.513C27.2138 19.4965 27.782 20.0646 27.782 20.7654C27.782 21.4663 27.2138 22.0344 26.513 22.0344H18.8993C18.1984 22.0344 17.6303 21.4663 17.6303 20.7654ZM18.8993 23.3034C18.1984 23.3034 17.6303 23.8715 17.6303 24.5723C17.6303 25.2732 18.1984 25.8413 18.8993 25.8413H29.0509C29.7518 25.8413 30.3199 25.2732 30.3199 24.5723C30.3199 23.8715 29.7518 23.3034 29.0509 23.3034H18.8993Z" fill="white"/>
</svg>
